<svg width="505" height="535" viewBox="0 0 505 535" fill="none" xmlns="http://www.w3.org/2000/svg">
<path d="M247.975 17.3555C250.995 16.9467 255.856 17.1959 258.939 17.354C317.944 20.3802 361.588 74.3146 357.011 132.348C355.812 147.58 352.178 159.712 345.469 173.52C350.786 170.882 355.133 168.803 360.755 166.854C387.382 157.917 416.462 159.87 441.654 172.287C456.611 179.603 468.527 189.564 478.378 202.977C520.025 259.675 496.46 342.054 428.968 364.941C406.362 372.519 381.88 372.383 359.36 364.551C354.015 362.678 350.409 360.941 345.325 358.423C354.286 375.424 358.033 395.554 357.113 414.663C354.723 464.224 316.721 506.47 267.553 513.539C264.664 513.952 261.33 514.43 258.43 514.354C241.072 516.031 219.725 510.475 204.446 502.316C179.732 488.837 161.352 466.133 153.315 439.156C145.386 413.091 147.737 382.837 160.601 358.749C155.006 360.711 150.099 363.786 143.514 365.787C116.083 374.118 87.9797 371.469 62.5957 358.637C38.7457 346.312 20.714 325.085 12.4081 299.557C2.87228 270.477 5.83287 242.977 19.6588 215.815C31.7034 192.328 52.6339 174.626 77.7959 166.647C106.107 157.501 134.27 160.052 160.564 173.542C159.222 170.367 157.601 167.385 156.331 164.131C129.846 96.2954 174.642 22.1817 247.975 17.3555ZM246.941 304.643C242.355 304.118 237.305 302.219 233.36 299.907C232.586 299.453 230.064 297.94 229.468 297.674C221.412 305.325 213.657 314.014 205.56 321.545C181.068 344.329 162.226 368.352 160.92 403.062C159.886 430.549 168.152 454.266 186.987 474.461C201.456 489.973 225.726 501.88 247.17 502.633L247.085 476.956C247.078 472.763 246.798 466.614 247.388 462.641C248.403 455.807 258.777 456.081 258.916 464.493C259.063 473.505 259.046 482.52 258.999 491.541C258.985 495.02 259.222 499.307 258.932 502.659L258.911 502.873C274.513 501.112 286.729 497.593 300.257 489.255C303.475 487.27 308.63 483.064 311.062 481.692C314.472 478.526 317.685 475.512 320.846 472.137C351.556 439.394 353.312 386.27 326.86 350.495C324.284 347.015 320.995 342.057 317.886 339.071C304.006 325.751 290.653 310.451 276.42 297.593C270.526 301.24 266.064 303.648 259.016 304.792L258.996 366.001L259.009 383.323C259.02 386.006 259.104 388.804 258.986 391.393C258.722 397.184 252.583 399.849 248.678 395.855C246.483 393.608 247.071 384.622 247.073 381.526L247.098 365.74L247.105 330.001C247.11 321.618 247.218 312.997 246.941 304.643ZM444.468 265.49C445.142 263.5 445.847 261.765 447.869 260.798C451.744 258.945 480.411 260.199 487.154 259.785C486.096 253.546 485.526 248.428 483.974 242.279C479.836 225.885 472.325 211.734 460.093 199.932C455.981 195.964 453.565 193.488 448.661 190.017C431.993 178.224 408.896 171.681 388.51 173.338C379.526 173.511 369.037 176.241 360.627 179.477C338.925 187.827 323.801 203.248 307.825 219.357C301.148 225.969 294.522 232.633 287.949 239.349C286.983 240.356 285.951 241.48 285.117 242.599C288.336 248.002 291.204 253.596 292.082 259.94L351.551 259.949L369.105 259.945C372.224 259.933 375.286 259.897 378.405 259.981C386.676 260.204 387.006 271.47 378.447 271.773C371.876 272.005 365.306 271.877 358.72 271.88L311.645 271.833C306.446 271.862 296.722 271.598 291.962 271.969C290.274 281.002 289.253 281.877 284.838 289.468C293.686 298.167 302.467 306.929 311.185 315.759C317.724 322.316 324.224 329.306 331.5 335.04C334.666 337.535 338.05 339.909 341.331 342.261C344.471 344.306 348.824 347.075 352.128 348.736C371.192 358.331 392.946 361.179 413.839 356.811C449.907 349.194 477.208 322.112 484.936 285.981C485.978 281.099 486.482 276.914 486.963 271.953C475.11 271.642 462.823 272.405 450.981 271.721C446.49 271.459 445.28 269.576 444.468 265.49ZM105.353 173.335C83.3851 173.931 59.4829 185.196 44.5032 201.242C28.4151 218.475 21.9098 237.048 18.9225 259.994L42.698 259.922C47.1839 259.912 51.7822 259.714 56.2269 260.253C59.1704 260.609 61.5656 263.173 61.4114 266.18C61.3179 267.763 60.5911 269.244 59.3948 270.286C58.4985 271.052 56.9793 271.676 55.8026 271.739C43.5374 272.374 31.0764 271.462 18.8107 271.943C22.1828 298.841 31.286 321.589 53.38 338.705C73.404 354.348 98.8734 361.289 124.066 357.971C137.023 356.296 149.459 351.816 160.508 344.847C162.659 343.48 169.539 338.219 170.61 337.702C187.033 325.51 200.181 309.236 215.051 295.213C216.989 293.387 219.471 291.263 221.069 289.179C217.328 283.732 215.106 278.217 213.828 271.786L152.245 271.898C147.374 271.864 142.502 271.88 137.632 271.943C133.677 271.99 125.476 272.805 122.656 269.881C121.548 268.716 120.97 267.144 121.061 265.54C121.451 258.463 131.993 259.968 136.802 259.975L154.252 259.96L213.886 259.912C215.322 252.647 216.939 248.678 221.113 242.52C213.798 234.416 205.222 227.026 197.875 219.047C173.318 192.377 143.644 169.878 105.353 173.335ZM255.904 293.254C271.096 291.629 282.069 277.959 280.37 262.776C278.67 247.594 264.946 236.689 249.77 238.465C234.701 240.227 223.888 253.834 225.576 268.91C227.264 283.985 240.818 294.866 255.904 293.254ZM258.986 183.288L259.003 211.951C259.011 216.203 259.23 222.474 259.006 226.557C268.11 229.657 268.037 228.687 276.695 234.403L303.266 207.372C308.557 202.012 314.691 196.347 319.569 190.7C338.841 168.381 348.45 140.765 344.555 111.252C341.859 90.8325 332.493 70.4194 317.674 55.8219C301.916 40.1718 281.05 30.7155 258.892 29.1824C259.201 40.4858 258.888 51.8797 259.028 63.1925C259.103 69.2562 259.429 72.031 253.302 74.5936C249.449 73.2561 247.413 72.015 247.212 67.5718C247.006 63.0091 247.082 58.4478 247.084 53.8812C247.139 45.6135 247.098 37.3458 246.961 29.0795C245.913 29.1748 244.746 29.3099 243.706 29.3571C217.076 33.4634 195.597 44.8097 179.177 66.7491C164.01 87.0138 158.132 115.283 161.77 140.165C164.451 158.499 174.143 176.356 185.847 190.32C188.775 193.783 192.932 197.694 196.179 200.936L212.36 217.161C217.88 222.71 223.349 228.416 229.002 233.802C229.615 234.386 235.392 230.573 236.672 229.982C240.161 228.371 243.671 227.879 247.062 226.584C247.332 206.922 247.139 186.627 247.107 166.942L247.08 149.754C247.076 146.331 246.938 142.806 247.264 139.419C247.966 132.144 258.279 132.148 258.872 139.64C259.259 144.523 259.081 149.561 259.064 154.451L258.986 183.288Z" fill="#DA8AC0"/>
</svg>
