<svg width="332" height="364" viewBox="0 0 332 364" fill="none" xmlns="http://www.w3.org/2000/svg">
<path d="M161.174 3.10557C171.423 2.67969 178.875 3.41647 188.305 7.65432C207.01 16.0601 219.096 34.1037 220.111 54.4982C221.084 74.0677 211.08 87.1064 201.805 103.224C199.677 106.921 196.81 111.319 195.132 115.128C197.807 116.522 201.028 118.213 203.578 119.769C205.449 120.911 206.896 122.192 208.964 123.429C211.375 119.164 214.731 114.868 217.31 110.634C221.515 103.596 226.374 96.9962 230.827 90.1269C240.548 75.1292 260.655 64.9539 278.625 66.1307C326.148 69.2429 347.53 126.429 311.61 159.225C303.015 167.027 292.153 171.876 280.605 173.066C274.86 173.664 267.793 173.517 261.968 173.5C254.238 173.478 246.397 173.567 238.688 173.202C238.734 177.852 238.93 185.887 238.164 190.323C243.365 190.096 249.651 190.25 254.908 190.231C261.928 190.286 268.968 190.138 275.985 190.374C307.423 191.429 330.885 216.498 329.478 247.957C328.753 261.628 322.633 274.455 312.463 283.618C301.77 293.445 287.578 298.565 273.075 297.828C266.26 297.5 259.575 295.85 253.395 292.968C239.756 286.648 234.131 279.038 225.97 266.91C222.875 262.25 219.754 257.61 216.608 252.985C214.393 249.684 211.039 243.83 208.542 241.112L208.321 240.875C204.389 243.686 199.716 245.93 195.796 248.531C194.514 249.382 199.832 257.885 200.597 259.268C207.965 272.57 217.667 284.985 219.719 300.475C221.569 314.438 218.136 328.93 209.333 340.073C199.102 353.023 186.304 359.31 170.112 361.28C161.655 361.28 156.012 361.35 147.705 358.323C133.677 353.208 122.807 343.015 116.455 329.595C113.722 323.71 112.183 317.34 111.926 310.858C110.971 290.808 119.254 280.683 128.601 263.905C130.875 259.825 135.34 253.073 136.823 248.903C134.473 247.886 125.615 242.243 123.394 240.666C122.208 242.621 120.893 244.683 119.589 246.554C112.588 256.608 106.252 267.838 98.9343 277.59C90.557 288.758 74.7065 296.258 60.9578 297.69C47.092 299.013 33.2628 294.825 22.4602 286.033C11.1147 276.943 3.90935 263.668 2.47095 249.201C-0.568941 218.773 24.415 191.58 54.5075 190.389C63.0125 190.053 71.548 190.371 80.055 190.281C84.6348 190.233 89.571 190.538 94.0865 190.099C93.3285 186.403 93.161 177.019 93.496 173.252C85.0535 173.4 76.8515 173.607 68.3703 173.513C61.343 173.436 54.9383 173.654 47.8818 172.499C33.715 170.248 21.046 162.401 12.719 150.721C4.87007 139.731 0.607324 125.303 2.88362 111.868C5.23352 97.1899 13.3816 84.0709 25.4975 75.4584C35.5085 68.3692 51.3255 64.4707 63.4808 66.6927C87.7725 71.1334 95.5303 81.0887 108.071 100.278C113.014 107.994 118.13 115.598 123.414 123.084C125.315 121.907 127.229 120.472 129.188 119.269C131.104 118.092 134.858 116.598 136.246 115.07C136.04 112.37 122.865 90.4792 120.402 86.3847C99.07 50.9192 119.535 7.59517 161.174 3.10557ZM184.711 348.263C195.925 343.018 204.6 333.538 208.83 321.9C214.506 305.81 209.342 290.15 200.273 276.865C197.845 273.308 187.475 253.805 185.158 252.33C183.276 252.093 177.089 253.84 174.783 254.118C167.486 254.993 160.552 254.835 153.333 253.328C151.415 252.925 148.522 252.158 146.648 251.958C141.837 260.015 137.08 268.105 132.377 276.228C129.789 280.793 126.61 285.583 124.551 290.395C117.02 308 121.424 327.998 135.763 340.818C146.538 350.45 162.615 354.32 176.72 350.895C179.391 350.245 182.141 349.245 184.711 348.263ZM70.9475 286.273C85.2658 280.748 89.1873 275.823 97.314 263.275C103.363 253.935 109.707 243.8 116.152 234.774C108.237 226.049 103.084 220.327 98.7223 208.89C97.619 205.996 96.7965 203.062 95.7113 200.189C90.6985 199.972 85.429 199.975 80.401 200.071C71.6373 200.239 62.7175 199.841 53.9813 200.113C29.1648 200.648 10.0584 222.943 11.6206 247.441C13.4936 276.813 43.326 295.565 70.9475 286.273ZM170.118 245.576C205.212 243.315 231.859 213.084 229.696 177.984C227.534 142.884 197.377 116.153 162.271 118.217C127.027 120.29 100.166 150.593 102.338 185.831C104.509 221.07 134.886 247.845 170.118 245.576ZM236.509 200.066C235.755 201.296 235.381 203.071 234.92 204.463C233.356 209.183 231.376 214.033 228.897 218.348C226.972 221.663 224.76 224.802 222.288 227.731C220.457 229.871 217.527 232.789 216.244 235.121L227.76 252.848C238.503 269.503 245.215 282.953 266.368 287.618C276.258 289.825 286.605 288.623 295.73 284.21C307.098 277.698 315.743 268.63 319.108 255.69C325.185 232.312 311.19 208.268 288.015 201.688C280.388 199.521 272.65 200.184 264.853 200.078C255.593 199.899 245.667 200.346 236.509 200.066ZM236.236 163.847C245.014 164.165 254.745 164.001 263.563 163.991C269.03 164.011 276.835 164.262 282.08 163.671C290.908 162.677 300.858 157.186 307.138 150.984C315.66 142.476 320.433 130.917 320.395 118.875C320.41 107.843 315.41 96.1729 307.618 88.4027C300.068 80.7957 290.008 76.1954 279.315 75.4597C278.563 75.4137 275.215 75.1744 274.655 75.3682C259.553 76.3862 244.747 83.6664 237.439 97.1034C234.16 103.132 217.906 125.119 216.955 129.275C217.498 130.966 220.011 133.577 221.251 135.052C228.112 143.219 233.836 153.374 236.236 163.847ZM54.7118 75.3667C8.0117 77.0059 -4.55123 139.001 36.4998 159.162C49.6775 165.634 59.0058 164.039 73.125 163.999L95.5203 163.969C96.8588 161.149 97.5365 158.154 98.6625 155.342C102.151 146.633 107.089 138.724 113.562 131.937C114.201 131.267 115.18 129.955 115.662 129.157C112.435 123.44 108.209 118.08 104.951 112.534C102.008 107.524 98.6425 102.943 95.679 98.2822C88.4795 86.9599 81.0385 80.6862 67.9323 76.8607C65.0905 76.0314 57.5818 74.9449 54.7118 75.3667ZM185.347 111.835C188.008 109.216 204.533 80.2422 207.235 74.6502C209.253 70.4762 210.985 63.1292 211.055 58.1649C211.231 45.5972 206.783 34.1107 197.901 25.0979C189.653 16.8149 178.475 12.1128 166.786 12.0093C165.344 12.0137 163.901 12.0491 162.461 12.1155C151.686 12.6498 140.247 18.2646 133.016 26.2402C124.848 35.1814 120.552 46.9919 121.066 59.0912C121.317 63.9064 122.358 68.6474 124.147 73.1254C127.682 82.1192 134.339 90.9327 139 99.4114C141.124 103.275 143.625 107.448 146.206 111.005C146.962 112.046 151.838 110.383 153.208 110.169C158.861 109.256 164.596 108.959 170.312 109.284C175.946 109.697 179.837 110.322 185.347 111.835Z" fill="#DA8AC0"/>
<path d="M161.998 130.531C190.476 128.277 215.37 149.578 217.548 178.062C219.725 206.546 198.357 231.383 169.867 233.483C141.486 235.576 116.764 214.307 114.595 185.931C112.426 157.556 133.628 132.776 161.998 130.531ZM169.811 224.701C193.361 222.62 210.782 201.867 208.751 178.312C206.72 154.757 186.004 137.292 162.445 139.273C138.815 141.26 121.286 162.052 123.323 185.678C125.36 209.303 146.189 226.788 169.811 224.701Z" fill="#DA8AC0"/>
<path d="M166.957 155.843C181.383 156.325 192.701 168.387 192.264 182.815C191.828 197.243 179.802 208.599 165.373 208.208C150.879 207.816 139.461 195.724 139.899 181.232C140.337 166.739 152.465 155.359 166.957 155.843ZM168.376 199.128C177.819 197.848 184.408 189.115 183.046 179.683C181.684 170.25 172.894 163.738 163.474 165.182C154.17 166.609 147.755 175.268 149.1 184.584C150.445 193.901 159.048 200.391 168.376 199.128Z" fill="#DA8AC0"/>
</svg>
