<svg width="430" height="431" viewBox="0 0 430 431" fill="none" xmlns="http://www.w3.org/2000/svg">
<path d="M208.35 2.1595C225.955 1.3695 238.94 4.86251 250.94 18.905C262.935 32.948 263.8 48.197 262.475 65.8495C264.6 63.459 266.81 61.1425 269.095 58.904C284.03 44.329 304.255 36.4645 325.11 37.123C343.485 37.567 360.92 45.342 373.53 58.716C386.92 72.6805 394.175 91.421 393.665 110.762C393.01 135.592 381.135 152.818 363.85 169.181C370.775 167.864 378.76 167.416 385.765 168.231C398.67 169.627 410.48 176.114 418.58 186.252C435.56 207.852 432.1 236.543 410.225 253.398C396.705 263.818 381.635 265.522 365.065 263.253C367.795 266.128 370.525 268.977 373.19 271.922C400.745 302.297 401.56 349.877 368.98 377.592C354.675 389.912 336.06 396.052 317.23 394.662C294.905 392.827 276.79 382.223 262.355 365.372C264.06 382.182 263.225 396.303 252.94 410.523C245.69 420.543 233.715 427.782 221.435 429.542C197.15 432.927 174.418 416.197 168.675 392.717C166.617 384.307 166.261 374.267 167.654 365.732C152.884 383.312 130.329 394.878 107.204 394.883C88.401 394.837 70.407 387.233 57.2715 373.778C28.8105 345.038 30.0595 302.387 56.145 272.427C58.8745 269.292 61.744 266.542 64.726 263.657C59.2155 263.977 53.585 264.293 48.0785 263.883C34.026 262.948 20.934 256.423 11.732 245.758C-9.13899 221.183 1.24002 184.049 30.4855 171.92C42.291 167.023 53.261 167.365 65.8485 168.598C64.015 166.885 62.0615 165.103 60.2725 163.357C45.245 148.964 36.597 129.159 36.255 108.353C36.0505 89.6165 44.4885 70.765 57.646 57.5485C70.7245 44.3145 88.6 36.9345 107.206 37.088C133.906 37.0975 149.978 47.882 167.959 65.878C162.412 35.735 177.507 8.4995 208.35 2.1595ZM74.769 376.708C90.6055 385.898 106.084 389.567 124.119 384.842C142.396 380.062 157.976 368.118 167.335 351.708C173.933 340.363 176.59 327.988 179.902 315.398L190.593 274.557C192.424 267.647 194.538 258.788 196.837 252.253C190.235 248.323 184.704 244.297 180.742 237.532C179.93 236.147 179.133 234.128 177.52 234.138C164.635 237.033 148.203 241.838 135.251 245.488C118.724 250.143 94.958 254.863 80.444 262.838C70.138 268.393 61.4075 276.467 55.0665 286.307C34.987 317.783 43.4575 356.433 74.769 376.708ZM221.125 175.562L222.685 175.542C226.085 172.023 240.91 102.501 244.72 93.738C246.485 89.681 248.425 82.5345 251.515 78.2835C254.75 70.455 256.125 60.786 256.17 52.409C256.305 28.928 237.77 7.86301 213.24 8.93251C212.215 8.97451 211.185 9.04902 210.16 9.15602C182.285 13.918 170.46 37.918 174.863 64.046C176.766 75.3405 181.401 82.6895 185.343 93.1475C192.635 120.552 199.612 148.208 206.78 175.646C212.335 175.268 215.64 174.988 221.125 175.562ZM251.585 198.067C260.41 195.524 269.27 193.105 278.165 190.809C282.005 189.788 289.03 188.114 292.62 186.803L317.955 180.189C325.075 178.315 333.185 176.524 339.93 173.784C371.42 160.997 392.44 128.3 383.925 94.2785C379.52 77.3375 368.585 62.8315 353.51 53.9365C343.09 47.7605 327.85 43.3625 315.795 45.1805C295.445 48.189 280.195 55.4135 267.715 72.346C263.795 77.7355 260.57 83.597 258.115 89.7915C254.275 99.6125 250.89 114.109 248.125 124.654L233.55 180.008C241.59 184.801 247.425 189.238 251.585 198.067ZM174.81 223.518C174.226 217.698 174.119 213.963 174.805 208.143C147.683 200.699 120.161 194.036 92.984 186.745C85.5415 184.748 78.1855 178.333 70.2785 176.956C60.1975 174.828 53.998 174.449 43.855 175.114C35.5145 176.954 29.992 178.835 23.1 184.215C6.55502 197.129 2.22952 221.372 14.738 238.678C27.621 256.497 49.719 260.163 70.037 254.893C77.602 252.983 83.571 249.123 90.685 246.203C99.8815 243.053 111.821 240.267 121.375 237.787C134.207 234.237 147.07 230.793 159.961 227.463C164.502 226.283 170.353 224.463 174.81 223.518ZM102.823 45.182C41.4885 54.1135 23.292 128.122 73.093 164.17C92.301 178.073 116.511 180.385 138.7 187.219C141.254 188.006 144.642 188.925 147.251 189.367C157.523 192.24 168.354 195.308 178.692 197.86C184.73 188.081 186.342 185.616 196.469 179.958L183.436 129.963C179.811 115.985 174.816 93.1785 168.358 81.2955C162.373 70.2425 153.567 60.971 142.837 54.4245C132.833 48.435 114.373 43.281 102.823 45.182ZM233.475 252.298L247.945 306.432C255.595 335.167 259.785 362.107 288.7 377.927C304.04 386.322 320.37 389.473 337.405 384.778C344.55 382.818 351.28 379.578 357.26 375.213C400.095 344.983 393.115 285.597 347.345 261.532C333.08 254.032 315.805 251.863 300.5 247.013C284.715 242.788 267.44 237.568 251.7 233.863C246.2 244.023 242.715 246.182 233.475 252.298ZM255.48 208.158C255.87 213.778 256.225 217.948 255.43 223.508C277.57 228.938 299.9 235.477 322.165 241.092C336.21 244.557 342.435 247.717 354.795 253.217C367.26 258.762 390.14 258.642 401.62 250.907C411.55 244.692 418.85 236.072 421.53 224.657C423.865 214.282 421.94 203.406 416.19 194.462C410.035 184.884 400.31 178.163 389.175 175.797C383.485 174.591 376.885 174.641 371.095 175.158C365.955 175.991 359.115 176.761 354.295 178.614C347.645 181.172 341.625 185.535 334.605 187.339C311.115 193.377 287.73 199.809 264.19 205.673C261.435 206.357 258.11 207.153 255.48 208.158ZM223.14 255.898C215.13 257.093 214.145 256.132 206.875 255.967C199.251 280.957 193.805 309.973 186.395 335.268C182.408 348.888 175.286 357.367 174.239 373.117C173.539 383.647 174.008 391.452 179.037 401.032C184.17 410.767 192.956 418.068 203.465 421.338C209.86 423.303 216.07 423.512 222.625 422.417C232.965 420.437 242.47 413.733 248.465 405.018C258.795 389.993 257.385 370.218 251.38 353.828C249.58 348.908 246.295 344.072 244.815 338.967C242.86 331.672 241.105 324.132 239.195 316.792L223.14 255.898ZM219.26 247.268C236.585 244.923 248.715 228.958 246.325 211.638C243.94 194.322 227.94 182.234 210.63 184.666C193.382 187.09 181.348 203.016 183.727 220.273C186.105 237.528 201.999 249.603 219.26 247.268Z" fill="#DA8AC0"/>
</svg>
